<svg xmlns="http://www.w3.org/2000/svg" viewBox="0 0 24.01 36.69">
  <path d="M14.82,19.29h-5.63c-.37,0-.68.3-.68.68v5.15c0,.37.3.68.68.68s.68-.3.68-.68v-4.48h.42v12.32c0,.37.3.68.68.68s.68-.3.68-.68v-7.42h.73v7.42c0,.37.3.68.68.68s.68-.3.68-.68v-12.32h.42v4.48c0,.37.3.68.68.68s.68-.3.68-.68v-5.15c0-.37-.3-.68-.68-.68Z"/>
  <circle cx="12" cy="17.3" r="1.57"/>
  <path d="M22.6,14.1v21.18H1.41V14.1h21.18M24.01,12.68H0v24.01h24.01V12.68h0Z"/>
  <polygon points="11.11 4.94 6.17 0 1.23 4.94 1.23 7.6 5.23 3.61 5.23 11.48 7.11 11.48 7.11 3.61 11.11 7.6 11.11 4.94"/>
  <polygon points="12.9 6.54 17.84 11.48 22.78 6.54 22.78 3.87 18.78 7.87 18.78 0 16.9 0 16.9 7.87 12.9 3.87 12.9 6.54"/>
</svg>
