<svg xmlns="http://www.w3.org/2000/svg" viewBox="0 0 36.29 29.04">
  <polygon points="17.3 18.73 17.3 24.04 5 24.04 5 5 17.3 5 17.3 10.59 22.3 10.59 22.3 5 22.3 0 17.3 0 5 0 0 0 0 5 0 24.04 0 29.04 5 29.04 17.3 29.04 22.3 29.04 22.3 24.04 22.3 18.73 17.3 18.73"/>
  <circle cx="9.97" cy="8.73" r="1.05"/>
  <path d="M9.04,10.69h0v4.12h0c0,.36.5.66,1.12.66h3.48l1.2,2.87h1l-1.2-2.87-.39-.93h-2.97v-1.47h2.32s-.09-.68-.58-.68h-1.74v-1.7h0c0-.36-.5-.66-1.12-.66s-1.12.29-1.12.66Z"/>
  <path d="M11.67,18.74c1.04-.58,1.78-1.63,1.91-2.87h-.72c-.18,1.49-1.45,2.64-2.98,2.64-1.66,0-3.01-1.35-3.01-3.01,0-1.21.71-2.24,1.74-2.72v-.77c-1.43.52-2.45,1.89-2.45,3.49,0,2.05,1.67,3.72,3.72,3.72h6.32v-.48h-4.53Z"/>
  <polygon points="29.44 7.81 23.79 7.81 23.79 7.81 28.63 12.66 17.3 12.66 17.3 16.66 28.64 16.66 23.79 21.51 29.45 21.51 36.29 14.66 29.44 7.81"/>
</svg>
