<svg xmlns="http://www.w3.org/2000/svg" viewBox="0 0 34.41 16.58">
  <path d="M16.76.3h3.36l-4.46,15.83h-3.16l-1.91-9.26-.56-3.06-.56,3.06-1.91,9.26h-3.07L0,.3h3.51l2.09,9.07.45,2.52.46-2.47L8.3.3h3.49l1.88,9.07.48,2.52.48-2.43L16.76.3Z"/>
  <path d="M32.19,14.95c-1.18,1.08-2.69,1.62-4.53,1.62-2.28,0-4.07-.73-5.37-2.19-1.3-1.47-1.96-3.48-1.96-6.04,0-2.76.74-4.89,2.22-6.39,1.29-1.3,2.93-1.96,4.92-1.96,2.66,0,4.61.87,5.84,2.62.68.98,1.04,1.97,1.1,2.95h-3.31c-.21-.76-.49-1.33-.83-1.72-.6-.69-1.49-1.03-2.67-1.03s-2.15.49-2.85,1.46c-.7.97-1.04,2.34-1.04,4.12s.37,3.11,1.1,3.99c.73.88,1.67,1.33,2.8,1.33s2.04-.38,2.65-1.14c.34-.41.62-1.02.84-1.84h3.28c-.29,1.73-1.02,3.13-2.19,4.21Z"/>
</svg>
